<svg width="6" height="6" viewBox="0 0 6 6" fill="none" xmlns="http://www.w3.org/2000/svg">
<path d="M3 0C1.34274 0 0 1.34274 0 3C0 4.65726 1.34274 6 3 6C4.65726 6 6 4.65726 6 3C6 1.34274 4.65726 0 3 0ZM3.69073 4.23508L2.62379 3.45968C2.58629 3.43185 2.56452 3.38831 2.56452 3.34234V1.30645C2.56452 1.22661 2.62984 1.16129 2.70968 1.16129H3.29032C3.37016 1.16129 3.43548 1.22661 3.43548 1.30645V2.97218L4.20363 3.53105C4.26895 3.57823 4.28226 3.66895 4.23508 3.73427L3.89395 4.20363C3.84677 4.26774 3.75605 4.28226 3.69073 4.23508Z" fill="#666D7B"/>
</svg>
