<svg width="1162" height="403" viewBox="0 0 1162 403" fill="none" xmlns="http://www.w3.org/2000/svg">
<g clip-path="url(#clip0_153_236)">
<rect x="793" y="26" width="353" height="53" rx="10" fill="#EEEEEE"/>
<path d="M902.83 61H900.614L907.023 43.5455H909.205L915.614 61H913.398L908.182 46.3068H908.045L902.83 61ZM903.648 54.1818H912.58V56.0568H903.648V54.1818ZM918.06 47.9091H920.071V61.9545C920.071 62.7614 919.932 63.4602 919.653 64.0511C919.381 64.642 918.966 65.0994 918.409 65.4233C917.858 65.7472 917.162 65.9091 916.321 65.9091C916.253 65.9091 916.185 65.9091 916.116 65.9091C916.048 65.9091 915.98 65.9091 915.912 65.9091V64.0341C915.98 64.0341 916.043 64.0341 916.099 64.0341C916.156 64.0341 916.219 64.0341 916.287 64.0341C916.901 64.0341 917.349 63.8523 917.634 63.4886C917.918 63.1307 918.06 62.6193 918.06 61.9545V47.9091ZM919.048 45.7273C918.656 45.7273 918.318 45.5938 918.034 45.3267C917.756 45.0597 917.616 44.7386 917.616 44.3636C917.616 43.9886 917.756 43.6676 918.034 43.4006C918.318 43.1335 918.656 43 919.048 43C919.44 43 919.776 43.1335 920.054 43.4006C920.338 43.6676 920.48 43.9886 920.48 44.3636C920.48 44.7386 920.338 45.0597 920.054 45.3267C919.776 45.5938 919.44 45.7273 919.048 45.7273ZM929.073 61.2727C927.891 61.2727 926.854 60.9915 925.962 60.429C925.076 59.8665 924.383 59.0795 923.883 58.0682C923.388 57.0568 923.141 55.875 923.141 54.5227C923.141 53.1591 923.388 51.9687 923.883 50.9517C924.383 49.9347 925.076 49.1449 925.962 48.5824C926.854 48.0199 927.891 47.7386 929.073 47.7386C930.255 47.7386 931.289 48.0199 932.175 48.5824C933.067 49.1449 933.761 49.9347 934.255 50.9517C934.755 51.9687 935.005 53.1591 935.005 54.5227C935.005 55.875 934.755 57.0568 934.255 58.0682C933.761 59.0795 933.067 59.8665 932.175 60.429C931.289 60.9915 930.255 61.2727 929.073 61.2727ZM929.073 59.4659C929.971 59.4659 930.71 59.2358 931.289 58.7756C931.869 58.3153 932.298 57.7102 932.576 56.9602C932.854 56.2102 932.994 55.3977 932.994 54.5227C932.994 53.6477 932.854 52.8324 932.576 52.0767C932.298 51.321 931.869 50.7102 931.289 50.2443C930.71 49.7784 929.971 49.5455 929.073 49.5455C928.175 49.5455 927.437 49.7784 926.857 50.2443C926.278 50.7102 925.849 51.321 925.57 52.0767C925.292 52.8324 925.153 53.6477 925.153 54.5227C925.153 55.3977 925.292 56.2102 925.57 56.9602C925.849 57.7102 926.278 58.3153 926.857 58.7756C927.437 59.2358 928.175 59.4659 929.073 59.4659ZM946.325 55.6477V47.9091H948.337V61H946.325V58.7841H946.189C945.882 59.4489 945.405 60.0142 944.757 60.4801C944.109 60.9403 943.291 61.1705 942.303 61.1705C941.484 61.1705 940.757 60.9915 940.121 60.6335C939.484 60.2699 938.984 59.7244 938.621 58.9972C938.257 58.2642 938.075 57.3409 938.075 56.2273V47.9091H940.087V56.0909C940.087 57.0455 940.354 57.8068 940.888 58.375C941.428 58.9432 942.115 59.2273 942.95 59.2273C943.45 59.2273 943.959 59.0994 944.476 58.8438C944.999 58.5881 945.436 58.196 945.788 57.6676C946.146 57.1392 946.325 56.4659 946.325 55.6477ZM957.714 47.9091V49.6136H950.93V47.9091H957.714ZM952.907 44.7727H954.918V57.25C954.918 57.8182 955.001 58.2443 955.165 58.5284C955.336 58.8068 955.552 58.9943 955.813 59.0909C956.08 59.1818 956.362 59.2273 956.657 59.2273C956.879 59.2273 957.06 59.2159 957.202 59.1932C957.344 59.1648 957.458 59.142 957.543 59.125L957.952 60.9318C957.816 60.983 957.626 61.0341 957.381 61.0852C957.137 61.142 956.827 61.1705 956.452 61.1705C955.884 61.1705 955.327 61.0483 954.782 60.804C954.242 60.5597 953.793 60.1875 953.435 59.6875C953.083 59.1875 952.907 58.5568 952.907 57.7955V44.7727ZM966.087 61.2727C964.826 61.2727 963.738 60.9943 962.823 60.4375C961.914 59.875 961.212 59.0909 960.718 58.0852C960.229 57.0739 959.985 55.8977 959.985 54.5568C959.985 53.2159 960.229 52.0341 960.718 51.0114C961.212 49.983 961.9 49.1818 962.781 48.608C963.667 48.0284 964.701 47.7386 965.883 47.7386C966.565 47.7386 967.238 47.8523 967.903 48.0795C968.567 48.3068 969.173 48.6761 969.718 49.1875C970.263 49.6932 970.698 50.3636 971.022 51.1989C971.346 52.0341 971.508 53.0625 971.508 54.2841V55.1364H961.417V53.3977H969.462C969.462 52.6591 969.315 52 969.019 51.4205C968.729 50.8409 968.315 50.3835 967.775 50.0483C967.241 49.7131 966.61 49.5455 965.883 49.5455C965.082 49.5455 964.388 49.7443 963.803 50.142C963.224 50.5341 962.778 51.0455 962.465 51.6761C962.153 52.3068 961.996 52.983 961.996 53.7045V54.8636C961.996 55.8523 962.167 56.6903 962.508 57.3778C962.854 58.0597 963.335 58.5795 963.948 58.9375C964.562 59.2898 965.275 59.4659 966.087 59.4659C966.616 59.4659 967.093 59.392 967.519 59.2443C967.951 59.0909 968.323 58.8636 968.636 58.5625C968.948 58.2557 969.19 57.875 969.36 57.4205L971.303 57.9659C971.099 58.625 970.755 59.2045 970.272 59.7045C969.789 60.1989 969.192 60.5852 968.482 60.8636C967.772 61.1364 966.974 61.2727 966.087 61.2727ZM974.192 61V59.4659L981.624 49.9205V49.7841H974.431V47.9091H984.215V49.5114L976.988 58.9886V59.125H984.454V61H974.192ZM1002.55 55.6477V47.9091H1004.56V61H1002.55V58.7841H1002.42C1002.11 59.4489 1001.63 60.0142 1000.98 60.4801C1000.34 60.9403 999.518 61.1705 998.529 61.1705C997.711 61.1705 996.984 60.9915 996.347 60.6335C995.711 60.2699 995.211 59.7244 994.847 58.9972C994.484 58.2642 994.302 57.3409 994.302 56.2273V47.9091H996.313V56.0909C996.313 57.0455 996.58 57.8068 997.114 58.375C997.654 58.9432 998.342 59.2273 999.177 59.2273C999.677 59.2273 1000.19 59.0994 1000.7 58.8438C1001.23 58.5881 1001.66 58.196 1002.01 57.6676C1002.37 57.1392 1002.55 56.4659 1002.55 55.6477ZM1010.26 53.125V61H1008.25V47.9091H1010.19V49.9545H1010.36C1010.67 49.2898 1011.13 48.7557 1011.76 48.3523C1012.38 47.9432 1013.19 47.7386 1014.18 47.7386C1015.07 47.7386 1015.84 47.9205 1016.51 48.2841C1017.17 48.642 1017.69 49.1875 1018.06 49.9205C1018.43 50.6477 1018.61 51.5682 1018.61 52.6818V61H1016.6V52.8182C1016.6 51.7898 1016.33 50.9886 1015.8 50.4148C1015.26 49.8352 1014.53 49.5455 1013.6 49.5455C1012.96 49.5455 1012.38 49.6847 1011.88 49.9631C1011.38 50.2415 1010.98 50.6477 1010.69 51.1818C1010.4 51.7159 1010.26 52.3636 1010.26 53.125ZM1027.77 61.2727C1026.51 61.2727 1025.43 60.9943 1024.51 60.4375C1023.6 59.875 1022.9 59.0909 1022.41 58.0852C1021.92 57.0739 1021.67 55.8977 1021.67 54.5568C1021.67 53.2159 1021.92 52.0341 1022.41 51.0114C1022.9 49.983 1023.59 49.1818 1024.47 48.608C1025.35 48.0284 1026.39 47.7386 1027.57 47.7386C1028.25 47.7386 1028.93 47.8523 1029.59 48.0795C1030.25 48.3068 1030.86 48.6761 1031.41 49.1875C1031.95 49.6932 1032.39 50.3636 1032.71 51.1989C1033.03 52.0341 1033.2 53.0625 1033.2 54.2841V55.1364H1023.1V53.3977H1031.15C1031.15 52.6591 1031 52 1030.71 51.4205C1030.42 50.8409 1030 50.3835 1029.46 50.0483C1028.93 49.7131 1028.3 49.5455 1027.57 49.5455C1026.77 49.5455 1026.08 49.7443 1025.49 50.142C1024.91 50.5341 1024.47 51.0455 1024.15 51.6761C1023.84 52.3068 1023.68 52.983 1023.68 53.7045V54.8636C1023.68 55.8523 1023.85 56.6903 1024.2 57.3778C1024.54 58.0597 1025.02 58.5795 1025.64 58.9375C1026.25 59.2898 1026.96 59.4659 1027.77 59.4659C1028.3 59.4659 1028.78 59.392 1029.21 59.2443C1029.64 59.0909 1030.01 58.8636 1030.32 58.5625C1030.64 58.2557 1030.88 57.875 1031.05 57.4205L1032.99 57.9659C1032.79 58.625 1032.44 59.2045 1031.96 59.7045C1031.48 60.1989 1030.88 60.5852 1030.17 60.8636C1029.46 61.1364 1028.66 61.2727 1027.77 61.2727ZM1045.02 43.5455V61H1043V43.5455H1045.02ZM1048.7 61V47.9091H1050.71V61H1048.7ZM1049.72 45.7273C1049.33 45.7273 1048.99 45.5938 1048.71 45.3267C1048.43 45.0597 1048.29 44.7386 1048.29 44.3636C1048.29 43.9886 1048.43 43.6676 1048.71 43.4006C1048.99 43.1335 1049.33 43 1049.72 43C1050.12 43 1050.45 43.1335 1050.73 43.4006C1051.01 43.6676 1051.15 43.9886 1051.15 44.3636C1051.15 44.7386 1051.01 45.0597 1050.73 45.3267C1050.45 45.5938 1050.12 45.7273 1049.72 45.7273ZM1063.67 50.8409L1061.86 51.3523C1061.75 51.0511 1061.58 50.7585 1061.36 50.4744C1061.14 50.1847 1060.85 49.946 1060.47 49.7585C1060.1 49.571 1059.62 49.4773 1059.03 49.4773C1058.23 49.4773 1057.56 49.6619 1057.03 50.0312C1056.5 50.3949 1056.24 50.858 1056.24 51.4205C1056.24 51.9205 1056.42 52.3153 1056.78 52.6051C1057.15 52.8949 1057.71 53.1364 1058.49 53.3295L1060.43 53.8068C1061.6 54.0909 1062.47 54.5256 1063.05 55.1108C1063.62 55.6903 1063.91 56.4375 1063.91 57.3523C1063.91 58.1023 1063.69 58.7727 1063.26 59.3636C1062.83 59.9545 1062.24 60.4205 1061.47 60.7614C1060.7 61.1023 1059.81 61.2727 1058.79 61.2727C1057.46 61.2727 1056.35 60.983 1055.48 60.4034C1054.6 59.8239 1054.05 58.9773 1053.82 57.8636L1055.73 57.3864C1055.91 58.0909 1056.25 58.6193 1056.76 58.9716C1057.27 59.3239 1057.94 59.5 1058.76 59.5C1059.7 59.5 1060.44 59.3011 1060.99 58.9034C1061.55 58.5 1061.83 58.017 1061.83 57.4545C1061.83 57 1061.67 56.6193 1061.35 56.3125C1061.03 56 1060.54 55.767 1059.88 55.6136L1057.7 55.1023C1056.5 54.8182 1055.62 54.3778 1055.06 53.7812C1054.5 53.179 1054.23 52.4261 1054.23 51.5227C1054.23 50.7841 1054.43 50.1307 1054.85 49.5625C1055.27 48.9943 1055.84 48.5483 1056.56 48.2244C1057.29 47.9006 1058.11 47.7386 1059.03 47.7386C1060.33 47.7386 1061.34 48.0227 1062.08 48.5909C1062.83 49.1591 1063.36 49.9091 1063.67 50.8409ZM1072.63 47.9091V49.6136H1065.84V47.9091H1072.63ZM1067.82 44.7727H1069.83V57.25C1069.83 57.8182 1069.91 58.2443 1070.08 58.5284C1070.25 58.8068 1070.47 58.9943 1070.73 59.0909C1070.99 59.1818 1071.28 59.2273 1071.57 59.2273C1071.79 59.2273 1071.97 59.2159 1072.12 59.1932C1072.26 59.1648 1072.37 59.142 1072.46 59.125L1072.87 60.9318C1072.73 60.983 1072.54 61.0341 1072.3 61.0852C1072.05 61.142 1071.74 61.1705 1071.37 61.1705C1070.8 61.1705 1070.24 61.0483 1069.7 60.804C1069.16 60.5597 1068.71 60.1875 1068.35 59.6875C1068 59.1875 1067.82 58.5568 1067.82 57.7955V44.7727ZM1081 61.2727C1079.74 61.2727 1078.65 60.9943 1077.74 60.4375C1076.83 59.875 1076.13 59.0909 1075.63 58.0852C1075.14 57.0739 1074.9 55.8977 1074.9 54.5568C1074.9 53.2159 1075.14 52.0341 1075.63 51.0114C1076.13 49.983 1076.81 49.1818 1077.69 48.608C1078.58 48.0284 1079.62 47.7386 1080.8 47.7386C1081.48 47.7386 1082.15 47.8523 1082.82 48.0795C1083.48 48.3068 1084.09 48.6761 1084.63 49.1875C1085.18 49.6932 1085.61 50.3636 1085.94 51.1989C1086.26 52.0341 1086.42 53.0625 1086.42 54.2841V55.1364H1076.33V53.3977H1084.38C1084.38 52.6591 1084.23 52 1083.93 51.4205C1083.64 50.8409 1083.23 50.3835 1082.69 50.0483C1082.15 49.7131 1081.52 49.5455 1080.8 49.5455C1080 49.5455 1079.3 49.7443 1078.72 50.142C1078.14 50.5341 1077.69 51.0455 1077.38 51.6761C1077.07 52.3068 1076.91 52.983 1076.91 53.7045V54.8636C1076.91 55.8523 1077.08 56.6903 1077.42 57.3778C1077.77 58.0597 1078.25 58.5795 1078.86 58.9375C1079.48 59.2898 1080.19 59.4659 1081 59.4659C1081.53 59.4659 1082.01 59.392 1082.43 59.2443C1082.87 59.0909 1083.24 58.8636 1083.55 58.5625C1083.86 58.2557 1084.1 57.875 1084.27 57.4205L1086.22 57.9659C1086.01 58.625 1085.67 59.2045 1085.19 59.7045C1084.7 60.1989 1084.11 60.5852 1083.4 60.8636C1082.69 61.1364 1081.89 61.2727 1081 61.2727Z" fill="black"/>
<path d="M872.312 50.5938H865.281V43.5625C865.281 42.6997 864.582 42 863.719 42H862.156C861.293 42 860.594 42.6997 860.594 43.5625V50.5938H853.562C852.7 50.5938 852 51.2935 852 52.1562V53.7188C852 54.5815 852.7 55.2812 853.562 55.2812H860.594V62.3125C860.594 63.1753 861.293 63.875 862.156 63.875H863.719C864.582 63.875 865.281 63.1753 865.281 62.3125V55.2812H872.312C873.175 55.2812 873.875 54.5815 873.875 53.7188V52.1562C873.875 51.2935 873.175 50.5938 872.312 50.5938Z" fill="black"/>
<rect x="21" y="26" width="354" height="671" rx="10" fill="#2B99FA"/>
<rect x="44" y="110.125" width="307" height="195.291" rx="5" fill="white"/>
<rect x="58.5" y="270.864" width="98" height="19.0299" rx="2.5" fill="white" stroke="#29293A"/>
<path d="M71.5 273.369C68.4617 273.369 66 275.834 66 278.877C66 281.92 68.4617 284.385 71.5 284.385C74.5383 284.385 77 281.92 77 278.877C77 275.834 74.5383 273.369 71.5 273.369ZM72.7663 281.145L70.8103 279.721C70.7415 279.67 70.7016 279.59 70.7016 279.505V275.767C70.7016 275.621 70.8214 275.501 70.9677 275.501H72.0323C72.1786 275.501 72.2984 275.621 72.2984 275.767V278.826L73.7067 279.852C73.8264 279.939 73.8508 280.105 73.7643 280.225L73.1389 281.087C73.0524 281.205 72.8861 281.231 72.7663 281.145Z" fill="black"/>
<rect x="240.5" y="270.864" width="88" height="19.0299" rx="2.5" fill="white" stroke="#29293A"/>
<rect x="58.5" y="124.646" width="77" height="16.0254" rx="2.5" fill="white" stroke="#758BFD"/>
<rect x="152.5" y="124.646" width="67" height="16.0254" rx="2.5" fill="white" stroke="#FF8600"/>
<rect x="58" y="203.264" width="256" height="6.00896" fill="#D9D9D9"/>
<rect x="58" y="220.29" width="237" height="6.00896" fill="#D9D9D9"/>
<rect x="58" y="242.322" width="86" height="6.00896" fill="#D9D9D9"/>
<rect x="83" y="276.373" width="64" height="8.01194" fill="#D9D9D9"/>
<rect x="65" y="129.154" width="64" height="8.01194" fill="#D9D9D9"/>
<rect x="157" y="129.154" width="59" height="8.01194" fill="#D9D9D9"/>
<rect x="253" y="276.373" width="64" height="8.01194" fill="#D9D9D9"/>
<rect x="58" y="156.194" width="158" height="23.0343" fill="#D9D9D9"/>
<rect x="44" y="333.458" width="307" height="165.246" rx="5" fill="white"/>
<rect x="58.5" y="347.979" width="77" height="16.0254" rx="2.5" fill="white" stroke="#758BFD"/>
<rect x="152.5" y="347.979" width="67" height="16.0254" rx="2.5" fill="white" stroke="#FF8600"/>
<rect x="65" y="352.487" width="64" height="8.01194" fill="#D9D9D9"/>
<rect x="157" y="352.487" width="59" height="8.01194" fill="#D9D9D9"/>
<rect x="58" y="379.527" width="158" height="23.0343" fill="#D9D9D9"/>
<ellipse cx="335.5" cy="69.5649" rx="2.5" ry="2.50373" fill="#29293A"/>
<ellipse cx="324.5" cy="69.5649" rx="2.5" ry="2.50373" fill="#29293A"/>
<ellipse cx="313.5" cy="69.5649" rx="2.5" ry="2.50373" fill="#29293A"/>
<rect x="407" y="26" width="354" height="491" rx="10" fill="#FF8600"/>
<rect x="430" y="110" width="307" height="195" rx="5" fill="white"/>
<rect x="444.5" y="270.5" width="98" height="19" rx="2.5" fill="white" stroke="#29293A"/>
<path d="M457.5 273C454.462 273 452 275.462 452 278.5C452 281.538 454.462 284 457.5 284C460.538 284 463 281.538 463 278.5C463 275.462 460.538 273 457.5 273ZM458.766 280.764L456.81 279.343C456.742 279.292 456.702 279.212 456.702 279.128V275.395C456.702 275.249 456.821 275.129 456.968 275.129H458.032C458.179 275.129 458.298 275.249 458.298 275.395V278.449L459.707 279.474C459.826 279.56 459.851 279.726 459.764 279.846L459.139 280.707C459.052 280.824 458.886 280.851 458.766 280.764Z" fill="black"/>
<rect x="626.5" y="270.5" width="88" height="19" rx="2.5" fill="white" stroke="#29293A"/>
<rect x="444.5" y="124.5" width="77" height="16" rx="2.5" fill="white" stroke="#DA2C38"/>
<rect x="538.5" y="124.5" width="67" height="16" rx="2.5" fill="white" stroke="#7CB518"/>
<rect x="444" y="203" width="256" height="6" fill="#D9D9D9"/>
<rect x="444" y="220" width="237" height="6" fill="#D9D9D9"/>
<rect x="444" y="242" width="86" height="6" fill="#D9D9D9"/>
<rect x="469" y="276" width="64" height="8" fill="#D9D9D9"/>
<rect x="451" y="129" width="64" height="8" fill="#D9D9D9"/>
<rect x="543" y="129" width="59" height="8" fill="#D9D9D9"/>
<rect x="639" y="276" width="64" height="8" fill="#D9D9D9"/>
<rect x="444" y="156" width="158" height="23" fill="#D9D9D9"/>
<rect x="900" y="40" width="188" height="27" fill="#D9D9D9"/>
<rect x="430" y="333" width="307" height="169" rx="5" fill="white"/>
<rect x="444.5" y="361.5" width="77" height="16" rx="2.5" fill="white" stroke="#758BFD"/>
<rect x="538.5" y="361.5" width="67" height="16" rx="2.5" fill="white" stroke="#FF8600"/>
<rect x="451" y="366" width="64" height="8" fill="#D9D9D9"/>
<rect x="543" y="366" width="59" height="8" fill="#D9D9D9"/>
<rect x="444" y="393" width="158" height="23" fill="#D9D9D9"/>
<circle cx="721.5" cy="69.5" r="2.5" fill="#29293A"/>
<circle cx="710.5" cy="69.5" r="2.5" fill="#29293A"/>
<circle cx="699.5" cy="69.5" r="2.5" fill="#29293A"/>
<rect x="58" y="47" width="158" height="39" fill="#D9D9D9"/>
<rect x="443" y="47" width="158" height="39" fill="#D9D9D9"/>
</g>
<defs>
<clipPath id="clip0_153_236">
<rect width="1162" height="403" fill="white"/>
</clipPath>
</defs>
</svg>
