<svg width="302" height="68" viewBox="0 0 302 68" fill="none" xmlns="http://www.w3.org/2000/svg">
<path d="M72.2872 48V20.16H73.8472L93.2872 39.04V20.16H94.7672V48H93.2872V41.12L73.7672 22.08V48H72.2872ZM103.177 20.16H122.777V21.64H104.657V32.92H120.417V34.4H104.657V46.52H122.777V48H103.177V20.16ZM141.426 34.08L130.746 20.16H132.666L142.386 32.84L152.146 20.16H154.026L143.346 34.08L154.026 48H152.146L142.386 35.32L132.666 48H130.746L141.426 34.08ZM183.235 20.16V21.64H172.715V48H171.275V21.64H160.755V20.16H183.235ZM200.845 20.16H202.405L213.845 48H212.245L208.485 38.8H194.765L190.965 48H189.405L200.845 20.16ZM195.365 37.36H207.885L201.605 22.08L195.365 37.36ZM231.814 34.68C229.547 34.2267 227.694 33.7333 226.254 33.2C224.841 32.64 223.721 31.8933 222.894 30.96C222.094 30 221.694 28.7733 221.694 27.28C221.694 25.7333 222.094 24.3733 222.894 23.2C223.721 22.0267 224.867 21.12 226.334 20.48C227.827 19.84 229.547 19.52 231.494 19.52C233.361 19.52 235.067 19.92 236.614 20.72C238.187 21.4933 239.427 22.5867 240.334 24C241.241 25.4133 241.694 27.0267 241.694 28.84H240.214C240.214 27.2667 239.827 25.88 239.054 24.68C238.281 23.48 237.227 22.56 235.894 21.92C234.561 21.2533 233.081 20.92 231.454 20.92C230.014 20.92 228.667 21.1467 227.414 21.6C226.161 22.0533 225.134 22.7467 224.334 23.68C223.561 24.6133 223.174 25.7867 223.174 27.2C223.174 28.48 223.547 29.5067 224.294 30.28C225.041 31.0267 226.014 31.6 227.214 32C228.414 32.4 230.094 32.8267 232.254 33.28C234.441 33.7333 236.134 34.1733 237.334 34.6C238.561 35 239.587 35.68 240.414 36.64C241.267 37.6 241.694 38.9467 241.694 40.68C241.694 42.4133 241.227 43.88 240.294 45.08C239.387 46.2533 238.174 47.1333 236.654 47.72C235.134 48.3067 233.481 48.6 231.694 48.6C229.481 48.6 227.534 48.1867 225.854 47.36C224.174 46.5333 222.881 45.3733 221.974 43.88C221.094 42.36 220.654 40.6267 220.654 38.68H222.134C222.134 40.3867 222.507 41.88 223.254 43.16C224.027 44.44 225.134 45.44 226.574 46.16C228.014 46.8533 229.721 47.2 231.694 47.2C234.147 47.2 236.174 46.6133 237.774 45.44C239.401 44.2667 240.214 42.6667 240.214 40.64C240.214 39.2533 239.867 38.1867 239.174 37.44C238.481 36.6933 237.601 36.16 236.534 35.84C235.494 35.4933 233.921 35.1067 231.814 34.68ZM251.903 20.16V39L270.783 20.16H272.863L261.223 31.76L272.823 48H271.063L260.183 32.8L251.903 41.08V48H250.423V20.16H251.903Z" fill="black"/>
<path d="M60 21.208L42.3955 38.8115L36.542 32.958L34.7949 34.7051L42.3916 42.3018L43.208 41.4844L43.2148 41.4912L60 24.7051V49H30V19H60V21.208Z" fill="#2B99FA"/>
</svg>
